<svg xmlns="http://www.w3.org/2000/svg" width="176.798" height="174.05" viewBox="0 0 176.798 174.05">
  <g id="noun-school-6649901" transform="translate(-12.571 -13.781)">
    <g id="Group_70254" data-name="Group 70254" transform="translate(12.571 13.781)">
      <path id="Path_12064" data-name="Path 12064" d="M58.1,50.6a5.145,5.145,0,1,1-10.29.073A5.145,5.145,0,0,1,58.1,50.6Z" transform="translate(35.438 29.451)" fill="#6fc8ed"/>
      <path id="Path_12065" data-name="Path 12065" d="M47.691,75.391H58.283v28.384H47.691Z" transform="translate(35.28 70.274)" fill="#6fc8ed"/>
      <path id="Path_12066" data-name="Path 12066" d="M85.855,33.09,50.548,69.856H13.012L20.688,33.09Z" transform="translate(-11.976 12.582)" fill="#0b154b"/>
      <path id="Path_12067" data-name="Path 12067" d="M56.012,33.09,91.32,69.856h37.536L121.179,33.09Z" transform="translate(47.014 12.582)" fill="#0b154b"/>
      <path id="Path_12068" data-name="Path 12068" d="M146.018,106.686l-40.9-42.75.009-24.464h30.46l-30.46-25.692H96.859V63.514l-41.1,43.172H12.571v81.142h72.86V148.815h30.942v39.014h73l-.009-81.142ZM44.044,166.059H33.823V148.8H44.044Zm0-27.609H33.823V121.19H44.044Zm20.719,27.609H54.542V148.8H64.763Zm0-27.609H54.542V121.19H64.763Zm31.069,0H85.611V121.19H95.832ZM85.445,93.884a15.378,15.378,0,1,1,15.378,15.378A15.38,15.38,0,0,1,85.445,93.884Zm31.107,44.566H106.331V121.19h10.221Zm29.466,27.609H135.8V148.8h10.221Zm0-27.609H135.8V121.19h10.221Zm20.719,27.609H156.516V148.8h10.221Zm0-27.609H156.516V121.19h10.221Z" transform="translate(-12.571 -13.781)" fill="#438ccb"/>
    </g>
  </g>
</svg>
