<svg xmlns="http://www.w3.org/2000/svg" width="189.677" height="190.472" viewBox="0 0 189.677 190.472">
  <g id="Group_70255" data-name="Group 70255" transform="translate(-23741.424 8869)">
    <path id="Path_12071" data-name="Path 12071" d="M16.859,60.312l.013-.006L53.934,47.223l2.352-.829V33.236L7.875,50.324V63.483Z" transform="translate(23751.803 -8803.077)" fill="#0b154b"/>
    <path id="Path_12072" data-name="Path 12072" d="M70.112,141.126V22.875H24.875V141.126h7.143V124.857a15.476,15.476,0,0,1,30.952,0v16.269ZM38.367,39.144h5.555v6.349H38.367Zm0,12.7h5.555v6.349H38.367Zm9.127,50.4a9.127,9.127,0,1,1,9.127-9.127A9.138,9.138,0,0,1,47.494,102.238ZM56.62,58.192H51.065V51.843H56.62Zm0-12.7H51.065V39.144H56.62Z" transform="translate(23788.768 -8825.607)" fill="#438ccb"/>
    <path id="Path_12073" data-name="Path 12073" d="M43.227,47.223,80.29,60.305l.013.006,8.984,3.171V50.324L40.875,33.236V46.394Z" transform="translate(23823.563 -8803.077)" fill="#0b154b"/>
    <path id="Path_12074" data-name="Path 12074" d="M28.875,61.8V78.065H48.716V61.8a9.92,9.92,0,1,0-19.841,0Z" transform="translate(23797.469 -8762.545)" fill="#6fc8ed"/>
    <path id="Path_12075" data-name="Path 12075" d="M76.588,51.842,40.875,39.236v66.31H76.588ZM53.573,82.93H48.018V76.581h5.555Zm0-12.7H48.018V63.883h5.555Z" transform="translate(23823.563 -8790.029)" fill="#438ccb"/>
    <path id="Path_12076" data-name="Path 12076" d="M47.588,105.547V39.237L11.875,51.843V105.55H47.588ZM34.89,63.881h5.555V70.23H34.89Zm0,12.7h5.555v6.349H34.89Zm-12.7-12.7h5.555V70.23H22.192Zm0,12.7h5.555v6.349H22.192Z" transform="translate(23760.498 -8790.027)" fill="#438ccb"/>
    <circle id="Ellipse_421" data-name="Ellipse 421" cx="3.571" cy="3.571" r="3.571" transform="translate(23832.689 -8736.066)" fill="#6fc8ed"/>
    <path id="Path_12077" data-name="Path 12077" d="M8.868,50.412c-.689,1.152-6.743,11.438-6.743,17.3,0,6.787,2.156,10.746,6.349,11.9V89.932h5.555V79.615c4.194-1.159,6.349-5.121,6.349-11.9,0-5.86-6.054-16.146-6.743-17.3A2.889,2.889,0,0,0,8.868,50.412Z" transform="translate(23739.299 -8768.46)" fill="#438ccb"/>
    <path id="Path_12078" data-name="Path 12078" d="M67.636,50.41a2.892,2.892,0,0,0-4.768,0c-.689,1.152-6.743,11.441-6.743,17.3,0,6.787,2.156,10.746,6.349,11.9V89.93h5.555V79.613c4.194-1.159,6.349-5.121,6.349-11.9C74.379,61.848,68.325,51.563,67.636,50.41Z" transform="translate(23856.723 -8768.459)" fill="#438ccb"/>
    <path id="Path_12079" data-name="Path 12079" d="M75.29,55.57,54.5,33.745h.117V14.3h6.746V8.746H54.62V2H49.065V8.746H42.319V14.3h6.746V33.745h.117L28.4,55.57H22.875v7.143H80.81V55.57Z" transform="translate(23784.42 -8871)" fill="#0b154b"/>
  </g>
</svg>
